<svg width="100%" viewBox="0 0 680 660" role="img" style="display:block;margin:40px 0;">
<title>Anyplace module expansion — one module becomes two, 15m² becomes 30m²</title>
<desc>Three-stage diagram showing how two Anyplace modules join to create a larger room, with imperial and metric measurements.</desc>
<defs>
<marker id="arr-exp" viewBox="0 0 10 10" refX="8" refY="5" markerWidth="5" markerHeight="5" orient="auto-start-reverse">
<path d="M2 1L8 5L2 9" fill="none" stroke="context-stroke" stroke-width="1.5" stroke-linecap="round" stroke-linejoin="round"/>
</marker>
</defs>

<!-- STAGE 1 -->
<text font-family="DM Serif Display,serif" font-size="14" font-weight="400" fill="#3d3d3a" x="56" y="44">Stage 1 — One complete module</text>
<rect x="56" y="58" width="150" height="116" fill="#f7f4ef" stroke="#1a1a18" stroke-width="4"/>
<g stroke="#1a1a18" stroke-width="0.8" opacity="0.3">
  <line x1="80" y1="58" x2="80" y2="70"/><line x1="104" y1="58" x2="104" y2="70"/>
  <line x1="128" y1="58" x2="128" y2="70"/><line x1="152" y1="58" x2="152" y2="70"/>
  <line x1="176" y1="58" x2="176" y2="70"/>
  <line x1="80" y1="174" x2="80" y2="162"/><line x1="104" y1="174" x2="104" y2="162"/>
  <line x1="128" y1="174" x2="128" y2="162"/><line x1="152" y1="174" x2="152" y2="162"/>
  <line x1="176" y1="174" x2="176" y2="162"/>
  <line x1="56" y1="85" x2="68" y2="85"/><line x1="56" y1="110" x2="68" y2="110"/>
  <line x1="56" y1="135" x2="68" y2="135"/><line x1="56" y1="158" x2="68" y2="158"/>
  <line x1="206" y1="85" x2="194" y2="85"/><line x1="206" y1="110" x2="194" y2="110"/>
  <line x1="206" y1="135" x2="194" y2="135"/><line x1="206" y1="158" x2="194" y2="158"/>
</g>
<g fill="#639922" opacity="0.9">
  <rect x="53" y="55" width="8" height="8" rx="1"/>
  <rect x="199" y="55" width="8" height="8" rx="1"/>
  <rect x="53" y="169" width="8" height="8" rx="1"/>
  <rect x="199" y="169" width="8" height="8" rx="1"/>
</g>
<text font-family="DM Serif Display,serif" font-size="15" fill="#1a1a18" text-anchor="middle" x="131" y="112">165 sq ft</text>
<text font-family="DM Sans,sans-serif" font-size="11" fill="#6b6b66" text-anchor="middle" x="131" y="128">(15.3 m²)</text>
<text font-family="DM Sans,sans-serif" font-size="11" fill="#6b6b66" text-anchor="middle" x="131" y="144">1 module</text>
<!-- dimensions -->
<line x1="56" y1="192" x2="206" y2="192" stroke="#9a9a94" stroke-width="0.8" marker-end="url(#arr-exp)" marker-start="url(#arr-exp)"/>
<text font-family="DM Sans,sans-serif" font-size="11" fill="#9a9a94" text-anchor="middle" x="131" y="206">14.7 ft (4480mm)</text>
<line x1="222" y1="58" x2="222" y2="174" stroke="#9a9a94" stroke-width="0.8" marker-end="url(#arr-exp)" marker-start="url(#arr-exp)"/>
<text font-family="DM Sans,sans-serif" font-size="11" fill="#9a9a94" x="228" y="121">11.2 ft</text>
<text font-family="DM Sans,sans-serif" font-size="10" fill="#9a9a94" x="228" y="134">(3430mm)</text>

<!-- STAGE 2 -->
<text font-family="DM Serif Display,serif" font-size="14" font-weight="400" fill="#3d3d3a" x="56" y="246">Stage 2 — Wall removed · second module added</text>
<!-- Left module -->
<rect x="56" y="262" width="150" height="116" fill="#f7f4ef" stroke="#1a1a18" stroke-width="4"/>
<!-- Right wall dashed -->
<line x1="206" y1="262" x2="206" y2="378" stroke="#9a9a94" stroke-width="2" stroke-dasharray="6 4"/>
<!-- Right module -->
<rect x="206" y="262" width="150" height="116" fill="#eaf3de" stroke="#1a1a18" stroke-width="4"/>
<!-- Join line green -->
<line x1="206" y1="262" x2="206" y2="378" stroke="#639922" stroke-width="1.5" stroke-dasharray="4 3" opacity="0.7"/>
<g fill="#639922" opacity="0.9">
  <rect x="53"  y="259" width="8" height="8" rx="1"/>
  <rect x="199" y="259" width="8" height="8" rx="1"/>
  <rect x="53"  y="373" width="8" height="8" rx="1"/>
  <rect x="199" y="373" width="8" height="8" rx="1"/>
  <rect x="349" y="259" width="8" height="8" rx="1"/>
  <rect x="349" y="373" width="8" height="8" rx="1"/>
</g>
<text font-family="DM Serif Display,serif" font-size="15" fill="#1a1a18" text-anchor="middle" x="203" y="316">330 sq ft</text>
<text font-family="DM Sans,sans-serif" font-size="11" fill="#6b6b66" text-anchor="middle" x="203" y="332">(30.7 m²)</text>
<text font-family="DM Sans,sans-serif" font-size="11" fill="#6b6b66" text-anchor="middle" x="203" y="348">2 modules · 1 room</text>
<text font-family="DM Sans,sans-serif" font-size="10" fill="#9a9a94" text-anchor="middle" x="206" y="256">wall removed</text>
<text font-family="DM Sans,sans-serif" font-size="10" fill="#27500A" text-anchor="middle" x="281" y="392">2-wall module</text>
<line x1="56" y1="400" x2="356" y2="400" stroke="#9a9a94" stroke-width="0.8" marker-end="url(#arr-exp)" marker-start="url(#arr-exp)"/>
<text font-family="DM Sans,sans-serif" font-size="11" fill="#9a9a94" text-anchor="middle" x="206" y="414">29.4 ft (8960mm)</text>

<!-- STAGE 3 — removed wall options -->
<line x1="56" y1="432" x2="624" y2="432" stroke="#e2e0d8" stroke-width="0.8"/>
<text font-family="DM Serif Display,serif" font-size="14" font-weight="400" fill="#3d3d3a" x="56" y="454">The removed wall — never wasted</text>
<rect x="56"  y="464" width="170" height="52" rx="6" fill="#eaf3de" stroke="#3B6D11" stroke-width="0.5"/>
<text font-family="DM Sans,sans-serif" font-size="13" font-weight="600" fill="#27500A" text-anchor="middle" x="141" y="486">Reused</text>
<text font-family="DM Sans,sans-serif" font-size="11" fill="#3B6D11" text-anchor="middle" x="141" y="503">End wall of new config</text>
<rect x="244" y="464" width="170" height="52" rx="6" fill="#e1f5ee" stroke="#0F6E56" stroke-width="0.5"/>
<text font-family="DM Sans,sans-serif" font-size="13" font-weight="600" fill="#085041" text-anchor="middle" x="329" y="486">Stored</text>
<text font-family="DM Sans,sans-serif" font-size="11" fill="#0F6E56" text-anchor="middle" x="329" y="503">Reinstalled when needed</text>
<rect x="432" y="464" width="170" height="52" rx="6" fill="#fdf0e8" stroke="#c8581a" stroke-width="0.5"/>
<text font-family="DM Sans,sans-serif" font-size="13" font-weight="600" fill="#7a4a00" text-anchor="middle" x="517" y="486">Sold</text>
<text font-family="DM Sans,sans-serif" font-size="11" fill="#c8581a" text-anchor="middle" x="517" y="503">Secondary market</text>

<!-- legend + footer -->
<line x1="56" y1="534" x2="624" y2="534" stroke="#e2e0d8" stroke-width="0.5"/>
<rect x="56" y="546" width="8" height="8" rx="1" fill="#639922" opacity="0.9"/>
<text font-family="DM Sans,sans-serif" font-size="11" fill="#9a9a94" x="70" y="555">Patented corner — structural integrity retained with or without wall panels</text>
<text font-family="DM Sans,sans-serif" font-size="11" fill="#9a9a94" text-anchor="middle" x="340" y="578">The superstructure is fixed. The walls are not. The shape is the structure.</text>
<text font-family="DM Sans,sans-serif" font-size="11" fill="#9a9a94" text-anchor="middle" x="340" y="596">Works on the long end, short end, or any direction — simultaneously.</text>

</svg>
